<svg width="1200" height="630" viewBox="0 0 1200 630" fill="none" xmlns="http://www.w3.org/2000/svg">
<rect width="1200" height="630" fill="white"/>
<path d="M196.923 450L200.284 439.957H215.596L218.977 450H226.852L212.494 409.273H203.386L189.048 450H196.923ZM202.272 434.031L207.781 417.625H208.099L213.608 434.031H202.272ZM239.097 409.273H231.898V450H239.097V409.273ZM259.824 450.597C267.5 450.597 272.392 446.043 272.909 439.56H266.028C265.412 442.841 263.045 444.73 259.883 444.73C255.389 444.73 252.485 440.972 252.485 434.727C252.485 428.562 255.449 424.864 259.883 424.864C263.343 424.864 265.471 427.091 266.028 430.034H272.909C272.412 423.412 267.241 419.057 259.784 419.057C250.835 419.057 245.187 425.52 245.187 434.847C245.187 444.094 250.696 450.597 259.824 450.597ZM287.61 450.616C292.402 450.616 295.266 448.369 296.578 445.804H296.817V450H303.738V429.557C303.738 421.483 297.155 419.057 291.328 419.057C284.905 419.057 279.973 421.92 278.382 427.489L285.104 428.443C285.82 426.355 287.848 424.565 291.368 424.565C294.709 424.565 296.539 426.276 296.539 429.278V429.398C296.539 431.466 294.371 431.565 288.982 432.142C283.056 432.778 277.388 434.548 277.388 441.429C277.388 447.435 281.783 450.616 287.61 450.616ZM289.479 445.327C286.476 445.327 284.328 443.955 284.328 441.31C284.328 438.545 286.735 437.392 289.956 436.935C291.846 436.676 295.624 436.199 296.559 435.443V439.043C296.559 442.443 293.814 445.327 289.479 445.327ZM318.175 432.102C318.175 427.688 320.84 425.142 324.638 425.142C328.357 425.142 330.584 427.588 330.584 431.665V450H337.783V430.551C337.803 423.233 333.627 419.057 327.323 419.057C322.749 419.057 319.607 421.244 318.215 424.645H317.857V419.455H310.976V450H318.175V432.102ZM358.425 450.597C366.101 450.597 370.993 446.043 371.51 439.56H364.63C364.013 442.841 361.647 444.73 358.485 444.73C353.99 444.73 351.087 440.972 351.087 434.727C351.087 428.562 354.05 424.864 358.485 424.864C361.945 424.864 364.073 427.091 364.63 430.034H371.51C371.013 423.412 365.843 419.057 358.385 419.057C349.436 419.057 343.789 425.52 343.789 434.847C343.789 444.094 349.297 450.597 358.425 450.597ZM390.944 450.597C398.064 450.597 402.956 447.116 404.228 441.807L397.507 441.051C396.532 443.636 394.146 444.989 391.044 444.989C386.39 444.989 383.308 441.926 383.248 436.696H404.527V434.489C404.527 423.77 398.083 419.057 390.566 419.057C381.816 419.057 376.109 425.48 376.109 434.906C376.109 444.491 381.737 450.597 390.944 450.597ZM383.268 431.844C383.487 427.946 386.37 424.665 390.666 424.665C394.802 424.665 397.586 427.688 397.626 431.844H383.268ZM410.617 450H417.816V419.455H410.617V450ZM414.236 415.119C416.523 415.119 418.392 413.369 418.392 411.222C418.392 409.054 416.523 407.304 414.236 407.304C411.929 407.304 410.06 409.054 410.06 411.222C410.06 413.369 411.929 415.119 414.236 415.119ZM439.109 461.455H446.308V445.188H446.606C447.74 447.415 450.106 450.537 455.356 450.537C462.555 450.537 467.944 444.83 467.944 434.767C467.944 424.585 462.396 419.057 455.336 419.057C449.947 419.057 447.7 422.298 446.606 424.506H446.189V419.455H439.109V461.455ZM446.169 434.727C446.169 428.801 448.714 424.963 453.348 424.963C458.14 424.963 460.606 429.04 460.606 434.727C460.606 440.455 458.1 444.631 453.348 444.631C448.754 444.631 446.169 440.653 446.169 434.727ZM482.899 450.616C487.691 450.616 490.555 448.369 491.868 445.804H492.106V450H499.027V429.557C499.027 421.483 492.444 419.057 486.618 419.057C480.194 419.057 475.262 421.92 473.672 427.489L480.393 428.443C481.109 426.355 483.137 424.565 486.657 424.565C489.998 424.565 491.828 426.276 491.828 429.278V429.398C491.828 431.466 489.66 431.565 484.271 432.142C478.345 432.778 472.677 434.548 472.677 441.429C472.677 447.435 477.072 450.616 482.899 450.616ZM484.768 445.327C481.765 445.327 479.618 443.955 479.618 441.31C479.618 438.545 482.024 437.392 485.245 436.935C487.135 436.676 490.913 436.199 491.848 435.443V439.043C491.848 442.443 489.103 445.327 484.768 445.327ZM506.265 450H513.464V432.043C513.464 428.165 516.387 425.42 520.345 425.42C521.558 425.42 523.069 425.639 523.686 425.838V419.216C523.029 419.097 521.896 419.017 521.1 419.017C517.6 419.017 514.677 421.006 513.564 424.545H513.245V419.455H506.265V450ZM536.657 450.616C541.449 450.616 544.313 448.369 545.625 445.804H545.864V450H552.784V429.557C552.784 421.483 546.202 419.057 540.375 419.057C533.952 419.057 529.02 421.92 527.429 427.489L534.151 428.443C534.867 426.355 536.895 424.565 540.415 424.565C543.756 424.565 545.586 426.276 545.586 429.278V429.398C545.586 431.466 543.418 431.565 538.029 432.142C532.103 432.778 526.435 434.548 526.435 441.429C526.435 447.435 530.83 450.616 536.657 450.616ZM538.526 445.327C535.523 445.327 533.375 443.955 533.375 441.31C533.375 438.545 535.782 437.392 539.003 436.935C540.892 436.676 544.671 436.199 545.605 435.443V439.043C545.605 442.443 542.861 445.327 538.526 445.327ZM185.476 516.597C194.425 516.597 200.112 510.293 200.112 500.847C200.112 491.381 194.425 485.057 185.476 485.057C176.527 485.057 170.839 491.381 170.839 500.847C170.839 510.293 176.527 516.597 185.476 516.597ZM185.516 510.83C180.564 510.83 178.138 506.415 178.138 500.827C178.138 495.239 180.564 490.764 185.516 490.764C190.388 490.764 192.814 495.239 192.814 500.827C192.814 506.415 190.388 510.83 185.516 510.83ZM220.113 527.455H227.312V511.188H227.61C228.744 513.415 231.11 516.537 236.36 516.537C243.559 516.537 248.948 510.83 248.948 500.767C248.948 490.585 243.4 485.057 236.34 485.057C230.951 485.057 228.704 488.298 227.61 490.506H227.192V485.455H220.113V527.455ZM227.173 500.727C227.173 494.801 229.718 490.963 234.352 490.963C239.144 490.963 241.61 495.04 241.61 500.727C241.61 506.455 239.104 510.631 234.352 510.631C229.758 510.631 227.173 506.653 227.173 500.727ZM255.113 516H262.312V498.043C262.312 494.165 265.235 491.42 269.192 491.42C270.406 491.42 271.917 491.639 272.533 491.838V485.216C271.877 485.097 270.744 485.017 269.948 485.017C266.448 485.017 263.525 487.006 262.411 490.545H262.093V485.455H255.113V516ZM289.382 516.597C298.331 516.597 304.018 510.293 304.018 500.847C304.018 491.381 298.331 485.057 289.382 485.057C280.433 485.057 274.746 491.381 274.746 500.847C274.746 510.293 280.433 516.597 289.382 516.597ZM289.422 510.83C284.47 510.83 282.044 506.415 282.044 500.827C282.044 495.239 284.47 490.764 289.422 490.764C294.294 490.764 296.72 495.239 296.72 500.827C296.72 506.415 294.294 510.83 289.422 510.83ZM286.618 481.438H292.007L298.112 472.349H291.072L286.618 481.438ZM314.866 485.455H307.23L316.298 500.727L306.991 516H314.628L321.031 505.003L327.494 516H335.071L325.705 500.727L334.912 485.455H327.295L321.031 496.73L314.866 485.455ZM340.48 516H347.679V485.455H340.48V516ZM344.099 481.119C346.386 481.119 348.256 479.369 348.256 477.222C348.256 475.054 346.386 473.304 344.099 473.304C341.793 473.304 339.923 475.054 339.923 477.222C339.923 479.369 341.793 481.119 344.099 481.119ZM355.082 516H362.281V497.426C362.281 493.668 364.786 491.122 367.888 491.122C370.931 491.122 373.019 493.17 373.019 496.312V516H380.079V496.949C380.079 493.509 382.127 491.122 385.607 491.122C388.511 491.122 390.817 492.832 390.817 496.611V516H398.036V495.497C398.036 488.676 394.099 485.057 388.491 485.057C384.056 485.057 380.675 487.244 379.323 490.645H379.005C377.832 487.185 374.869 485.057 370.752 485.057C366.656 485.057 363.593 487.165 362.32 490.645H361.962V485.455H355.082V516ZM418.663 516.597C427.612 516.597 433.3 510.293 433.3 500.847C433.3 491.381 427.612 485.057 418.663 485.057C409.714 485.057 404.027 491.381 404.027 500.847C404.027 510.293 409.714 516.597 418.663 516.597ZM418.703 510.83C413.751 510.83 411.325 506.415 411.325 500.827C411.325 495.239 413.751 490.764 418.703 490.764C423.575 490.764 426.001 495.239 426.001 500.827C426.001 506.415 423.575 510.83 418.703 510.83ZM460.499 475.273H453.3V516H460.499V475.273ZM481.425 516.597C488.544 516.597 493.436 513.116 494.709 507.807L487.987 507.051C487.013 509.636 484.626 510.989 481.524 510.989C476.871 510.989 473.788 507.926 473.729 502.696H495.007V500.489C495.007 489.77 488.564 485.057 481.047 485.057C472.297 485.057 466.589 491.48 466.589 500.906C466.589 510.491 472.217 516.597 481.425 516.597ZM473.749 497.844C473.967 493.946 476.851 490.665 481.146 490.665C485.283 490.665 488.067 493.688 488.107 497.844H473.749ZM527.506 485.455H519.85L512.81 508.145H512.492L505.472 485.455H497.796L508.674 516H516.629L527.506 485.455ZM544.972 516.597C552.091 516.597 556.983 513.116 558.256 507.807L551.534 507.051C550.56 509.636 548.173 510.989 545.071 510.989C540.418 510.989 537.335 507.926 537.276 502.696H558.554V500.489C558.554 489.77 552.111 485.057 544.594 485.057C535.844 485.057 530.136 491.48 530.136 500.906C530.136 510.491 535.764 516.597 544.972 516.597ZM537.295 497.844C537.514 493.946 540.398 490.665 544.693 490.665C548.83 490.665 551.614 493.688 551.653 497.844H537.295ZM571.843 475.273H564.644V516H571.843V475.273Z" fill="#2E384D"/>
<path fill-rule="evenodd" clip-rule="evenodd" d="M510.258 144.608C509.828 163.799 523.477 172.851 523.477 172.851C523.477 172.851 537.763 162.425 538.179 143.725C538.603 124.992 522.903 114 522.903 114C522.903 114 510.677 125.414 510.258 144.608ZM484.522 190.242C490.165 208.074 506.771 213.989 506.771 213.989C506.771 213.989 517.363 201.396 511.588 183.092C505.789 164.794 490.893 157.366 490.893 157.366C490.893 157.366 478.89 172.413 484.522 190.242ZM540.745 181.349C529.773 197.108 536.119 212.274 536.119 212.274C536.119 212.274 553.75 211.529 564.42 196.149C575.124 180.779 568.172 162.88 568.172 162.88C568.172 162.88 551.709 165.577 540.745 181.349ZM499.649 233.655C502.995 252.559 490.861 263.679 490.861 263.679C490.861 263.679 475.156 255.634 471.888 237.222C468.659 218.798 482.498 205.445 482.498 205.445C482.498 205.445 496.299 214.762 499.649 233.655ZM472.064 266.671C470.5 247.513 457.647 236.94 457.647 236.94C457.647 236.94 442.611 248.935 444.134 267.587C445.657 286.239 460.505 295.73 460.505 295.73C460.505 295.73 473.619 285.816 472.064 266.671ZM420.754 325.563C420.754 325.563 409.254 312.18 413.151 293.857C417.059 275.536 434.905 268.386 434.905 268.386C434.905 268.386 444.153 282.24 440.162 301.045C436.16 319.847 420.754 325.563 420.754 325.563ZM525.838 250.579C525.838 250.579 524.257 234.199 539.342 222.371C554.463 210.54 570.964 212.819 570.964 212.819C570.964 212.819 572.353 232.013 557.618 243.546C542.879 255.089 525.838 250.579 525.838 250.579ZM522.27 262.007C504.93 270.202 502.848 286.534 502.848 286.534C502.848 286.534 518.471 294.71 535.371 286.752C552.272 278.794 555.177 259.746 555.177 259.746C555.177 259.746 539.615 253.838 522.27 262.007ZM475.153 313.942C475.153 313.942 482.058 298.983 501.037 296.452C520.04 293.916 533.057 304.273 533.057 304.273C533.057 304.273 524.543 321.55 506.05 324.022C487.543 326.502 475.153 313.942 475.153 313.942ZM494.11 336.832C494.11 336.832 482.383 324.992 463.249 325.217C444.122 325.456 435.519 339.478 435.519 339.478C435.519 339.478 446.311 353.439 464.962 353.226C483.626 352.958 494.11 336.832 494.11 336.832ZM518.75 183.096L527.733 181.312C527.916 182.292 545.312 279.986 404.588 347.55L400.684 339.3C534.634 274.96 519.47 186.803 518.75 183.096ZM217.258 182.121C228.23 197.88 221.884 213.046 221.884 213.046C221.884 213.046 204.253 212.3 193.583 196.921C182.879 181.551 189.831 163.652 189.831 163.652C189.831 163.652 206.294 166.349 217.258 182.121ZM251.23 214.761C251.23 214.761 267.836 208.846 273.479 191.014C279.111 173.185 267.108 158.138 267.108 158.138C267.108 158.138 252.212 165.566 246.413 183.864C240.638 202.168 251.23 214.761 251.23 214.761ZM267.14 264.45C267.14 264.45 255.006 253.331 258.352 234.427C261.702 215.534 275.503 206.217 275.503 206.217C275.503 206.217 289.342 219.57 286.113 237.994C282.845 256.405 267.14 264.45 267.14 264.45ZM300.357 237.712C300.357 237.712 287.504 248.285 285.94 267.443C284.385 286.588 297.499 296.502 297.499 296.502C297.499 296.502 312.347 287.011 313.87 268.359C315.393 249.706 300.357 237.712 300.357 237.712ZM344.85 294.628C348.747 312.951 337.247 326.335 337.247 326.335C337.247 326.335 321.841 320.619 317.839 301.817C313.848 283.012 323.096 269.157 323.096 269.157C323.096 269.157 340.942 276.308 344.85 294.628ZM234.522 173.623C234.522 173.623 248.171 164.571 247.741 145.38C247.322 126.185 235.096 114.772 235.096 114.772C235.096 114.772 219.396 125.764 219.82 144.497C220.236 163.197 234.522 173.623 234.522 173.623ZM218.657 223.142C233.742 234.97 232.161 251.35 232.161 251.35C232.161 251.35 215.12 255.861 200.381 244.317C185.646 232.785 187.035 213.59 187.035 213.59C187.035 213.59 203.536 211.312 218.657 223.142ZM255.153 287.305C255.153 287.305 253.071 270.973 235.731 262.779C218.386 254.61 202.824 260.518 202.824 260.518C202.824 260.518 205.729 279.566 222.63 287.524C239.53 295.482 255.153 287.305 255.153 287.305ZM256.967 297.223C275.946 299.755 282.851 314.714 282.851 314.714C282.851 314.714 270.461 327.274 251.954 324.794C233.461 322.321 224.947 305.044 224.947 305.044C224.947 305.044 237.964 294.687 256.967 297.223ZM294.752 325.989C275.618 325.764 263.891 337.604 263.891 337.604C263.891 337.604 274.374 353.729 293.039 353.997C311.69 354.211 322.482 340.25 322.482 340.25C322.482 340.25 313.879 326.228 294.752 325.989ZM230.269 182.083L239.252 183.868C238.532 187.575 223.368 275.732 357.318 340.072L353.414 348.322C212.69 280.758 230.086 183.064 230.269 182.083Z" fill="url(#paint0_linear)"/>
<g filter="url(#filter0_d)">
<path d="M301.152 344H459.831V305.526H366.363V304.004L398.859 272.16C444.616 230.425 456.897 209.557 456.897 184.234C456.897 145.651 425.378 118.371 377.666 118.371C330.932 118.371 298.87 146.303 298.978 189.994H343.648C343.539 168.692 357.016 155.65 377.34 155.65C396.903 155.65 411.467 167.823 411.467 187.386C411.467 205.101 400.598 217.274 380.383 236.728L301.152 310.09V344Z" fill="#5965E0"/>
</g>
<path d="M743.926 191.398C749.864 191.398 754.224 187.847 754.21 183.017C754.224 179.338 751.994 176.696 748.131 176.099V175.872C751.17 175.091 753.145 172.705 753.131 169.438C753.145 165.162 749.636 161.511 744.04 161.511C738.699 161.511 734.409 164.736 734.267 169.466H738.514C738.614 166.795 741.128 165.176 743.983 165.176C746.952 165.176 748.898 166.98 748.884 169.665C748.898 172.477 746.639 174.324 743.415 174.324H740.957V177.903H743.415C747.449 177.903 749.778 179.949 749.778 182.875C749.778 185.702 747.321 187.619 743.898 187.619C740.744 187.619 738.287 186 738.116 183.415H733.656C733.841 188.159 738.045 191.398 743.926 191.398Z" fill="#5965E0"/>
<path d="M779.413 191.44C784.569 191.44 787.907 188.344 788.376 184.097H784.242C783.702 186.455 781.87 187.847 779.441 187.847C775.847 187.847 773.532 184.849 773.532 180.091C773.532 175.418 775.89 172.477 779.441 172.477C782.14 172.477 783.788 174.182 784.242 176.227H788.376C787.921 171.824 784.327 168.898 779.37 168.898C773.219 168.898 769.242 173.528 769.242 180.19C769.242 186.767 773.077 191.44 779.413 191.44ZM802.108 191.44C808.259 191.44 812.278 186.938 812.278 180.19C812.278 173.401 808.259 168.898 802.108 168.898C795.957 168.898 791.938 173.401 791.938 180.19C791.938 186.938 795.957 191.44 802.108 191.44ZM802.122 187.875C798.102 187.875 796.227 184.366 796.227 180.176C796.227 176 798.102 172.449 802.122 172.449C806.114 172.449 807.989 176 807.989 180.176C807.989 184.366 806.114 187.875 802.122 187.875ZM817.019 191H821.266V177.548C821.266 174.608 823.326 172.562 825.741 172.562C828.099 172.562 829.732 174.125 829.732 176.497V191H833.965V177.094C833.965 174.466 835.57 172.562 838.34 172.562C840.585 172.562 842.431 173.812 842.431 176.767V191H846.678V176.369C846.678 171.384 843.894 168.898 839.945 168.898C836.806 168.898 834.448 170.403 833.397 172.733H833.17C832.218 170.347 830.215 168.898 827.303 168.898C824.42 168.898 822.275 170.332 821.366 172.733H821.096V169.182H817.019V191ZM852.371 199.182H856.618V187.605H856.874C857.641 188.997 859.203 191.426 863.18 191.426C868.464 191.426 872.3 187.193 872.3 180.134C872.3 173.06 868.408 168.898 863.138 168.898C859.089 168.898 857.626 171.369 856.874 172.719H856.518V169.182H852.371V199.182ZM856.533 180.091C856.533 175.531 858.521 172.506 862.229 172.506C866.078 172.506 868.01 175.759 868.01 180.091C868.01 184.466 866.021 187.804 862.229 187.804C858.578 187.804 856.533 184.679 856.533 180.091ZM881.305 161.909H877.058V191H881.305V161.909ZM896.423 191.44C901.181 191.44 904.548 189.097 905.513 185.545L901.494 184.821C900.727 186.881 898.88 187.932 896.465 187.932C892.829 187.932 890.386 185.574 890.272 181.369H905.783V179.864C905.783 171.98 901.067 168.898 896.124 168.898C890.045 168.898 886.039 173.528 886.039 180.233C886.039 187.009 889.988 191.44 896.423 191.44ZM890.286 178.188C890.457 175.091 892.701 172.406 896.153 172.406C899.448 172.406 901.607 174.849 901.621 178.188H890.286ZM920.68 169.182H916.206V163.955H911.959V169.182H908.763V172.591H911.959V185.474C911.945 189.438 914.97 191.355 918.322 191.284C919.672 191.27 920.581 191.014 921.078 190.83L920.311 187.321C920.027 187.378 919.501 187.506 918.82 187.506C917.442 187.506 916.206 187.051 916.206 184.594V172.591H920.68V169.182ZM931.728 191.483C935.336 191.483 937.367 189.651 938.177 188.017H938.347V191H942.495V176.511C942.495 170.162 937.495 168.898 934.029 168.898C930.08 168.898 926.444 170.489 925.023 174.466L929.015 175.375C929.64 173.827 931.231 172.335 934.086 172.335C936.827 172.335 938.234 173.77 938.234 176.241V176.341C938.234 177.889 936.643 177.861 932.722 178.315C928.589 178.798 924.356 179.878 924.356 184.835C924.356 189.125 927.58 191.483 931.728 191.483ZM932.651 188.074C930.251 188.074 928.518 186.994 928.518 184.892C928.518 182.619 930.535 181.81 932.992 181.483C934.37 181.298 937.637 180.929 938.248 180.318V183.131C938.248 185.716 936.188 188.074 932.651 188.074ZM956.32 191.426C960.297 191.426 961.859 188.997 962.626 187.605H962.982V191H967.129V161.909H962.882V172.719H962.626C961.859 171.369 960.411 168.898 956.348 168.898C951.078 168.898 947.2 173.06 947.2 180.134C947.2 187.193 951.021 191.426 956.32 191.426ZM957.257 187.804C953.464 187.804 951.49 184.466 951.49 180.091C951.49 175.759 953.422 172.506 957.257 172.506C960.964 172.506 962.953 175.531 962.953 180.091C962.953 184.679 960.922 187.804 957.257 187.804ZM982.381 191.44C988.532 191.44 992.552 186.938 992.552 180.19C992.552 173.401 988.532 168.898 982.381 168.898C976.231 168.898 972.211 173.401 972.211 180.19C972.211 186.938 976.231 191.44 982.381 191.44ZM982.396 187.875C978.376 187.875 976.501 184.366 976.501 180.176C976.501 176 978.376 172.449 982.396 172.449C986.387 172.449 988.262 176 988.262 180.176C988.262 184.366 986.387 187.875 982.396 187.875ZM1013.64 174.509C1012.76 171.114 1010.11 168.898 1005.39 168.898C1000.46 168.898 996.966 171.497 996.966 175.361C996.966 178.457 998.841 180.517 1002.93 181.426L1006.62 182.236C1008.73 182.705 1009.71 183.642 1009.71 185.006C1009.71 186.696 1007.9 188.017 1005.12 188.017C1002.58 188.017 1000.94 186.923 1000.43 184.778L996.327 185.403C997.037 189.267 1000.25 191.44 1005.15 191.44C1010.42 191.44 1014.07 188.642 1014.07 184.693C1014.07 181.611 1012.11 179.707 1008.1 178.784L1004.64 177.989C1002.24 177.42 1001.2 176.611 1001.21 175.134C1001.2 173.457 1003.02 172.264 1005.43 172.264C1008.07 172.264 1009.3 173.727 1009.79 175.19L1013.64 174.509Z" fill="#666666"/>
<path opacity="0.5" d="M738.705 136C744.023 136 747.244 132.71 747.244 127.256C747.244 121.818 744.023 118.545 738.756 118.545H732.517V136H738.705ZM736.207 132.838V121.707H738.56C741.832 121.707 743.562 123.378 743.562 127.256C743.562 131.151 741.832 132.838 738.551 132.838H736.207ZM749.978 136H761.773V132.957H753.668V128.79H761.134V125.747H753.668V121.588H761.739V118.545H749.978V136ZM774.142 123.565H777.679C777.628 120.455 775.071 118.307 771.185 118.307C767.358 118.307 764.554 120.42 764.571 123.591C764.562 126.165 766.378 127.639 769.327 128.347L771.227 128.824C773.128 129.284 774.185 129.83 774.193 131.006C774.185 132.284 772.974 133.153 771.099 133.153C769.182 133.153 767.801 132.267 767.682 130.52H764.111C764.205 134.295 766.906 136.247 771.142 136.247C775.403 136.247 777.909 134.21 777.918 131.014C777.909 128.108 775.719 126.565 772.685 125.884L771.116 125.509C769.599 125.159 768.33 124.597 768.355 123.344C768.355 122.219 769.352 121.392 771.159 121.392C772.923 121.392 774.006 122.193 774.142 123.565ZM783.01 136L784.305 132.02H790.604L791.899 136H795.854L789.837 118.545H785.081L779.055 136H783.01ZM785.243 129.139L787.391 122.534H787.527L789.675 129.139H785.243ZM797.955 136H801.645V128.79H808.744V125.747H801.645V121.588H809.511V118.545H797.955V136ZM815.684 118.545H811.994V136H815.684V118.545ZM834.76 127.273C834.76 121.562 831.214 118.307 826.587 118.307C821.933 118.307 818.413 121.562 818.413 127.273C818.413 132.957 821.933 136.239 826.587 136.239C831.214 136.239 834.76 132.983 834.76 127.273ZM831.018 127.273C831.018 130.972 829.263 132.974 826.587 132.974C823.902 132.974 822.155 130.972 822.155 127.273C822.155 123.574 823.902 121.571 826.587 121.571C829.263 121.571 831.018 123.574 831.018 127.273ZM846.962 123.565H850.499C850.448 120.455 847.891 118.307 844.005 118.307C840.178 118.307 837.374 120.42 837.391 123.591C837.383 126.165 839.198 127.639 842.147 128.347L844.048 128.824C845.948 129.284 847.005 129.83 847.013 131.006C847.005 132.284 845.795 133.153 843.92 133.153C842.002 133.153 840.621 132.267 840.502 130.52H836.931C837.025 134.295 839.727 136.247 843.962 136.247C848.224 136.247 850.729 134.21 850.738 131.014C850.729 128.108 848.539 126.565 845.505 125.884L843.937 125.509C842.42 125.159 841.15 124.597 841.175 123.344C841.175 122.219 842.173 121.392 843.979 121.392C845.744 121.392 846.826 122.193 846.962 123.565Z" fill="#666666"/>
<line x1="733" y1="231.25" x2="1073" y2="231.25" stroke="#DCDDE0" stroke-width="1.5"/>
<line x1="733" y1="382.25" x2="1073" y2="382.25" stroke="#DCDDE0" stroke-width="1.5"/>
<path d="M744.835 312.909H740.56L733.301 317.653V321.858L740.261 317.312H740.432V342H744.835V312.909ZM762.307 342.398C768.159 342.398 772.335 338.264 772.321 332.597C772.335 326.972 768.415 322.881 763.116 322.881C760.957 322.881 758.955 323.705 757.818 324.812H757.648L758.571 316.673H770.915V312.909H754.92L753.287 327.568L757.307 328.165C758.401 327.185 760.361 326.517 762.122 326.517C765.574 326.545 768.074 329.131 768.074 332.682C768.074 336.176 765.645 338.705 762.307 338.705C759.494 338.705 757.264 336.915 757.037 334.415H752.776C752.946 339.045 756.966 342.398 762.307 342.398ZM776.898 336.318H790.691V342H794.881V336.318H798.731V332.597H794.881V312.909H789.469L776.898 332.767V336.318ZM790.719 332.597H781.501V332.369L790.492 318.136H790.719V332.597ZM813.809 342.483C820.528 342.483 824.462 337 824.462 327.469C824.462 318.009 820.471 312.511 813.809 312.511C807.133 312.511 803.156 317.994 803.141 327.469C803.141 336.986 807.076 342.469 813.809 342.483ZM813.809 338.69C809.874 338.69 807.502 334.741 807.502 327.469C807.516 320.224 809.888 316.233 813.809 316.233C817.715 316.233 820.102 320.224 820.102 327.469C820.102 334.741 817.729 338.69 813.809 338.69ZM839.629 342.483C846.348 342.483 850.283 337 850.283 327.469C850.283 318.009 846.291 312.511 839.629 312.511C832.953 312.511 828.976 317.994 828.962 327.469C828.962 336.986 832.896 342.469 839.629 342.483ZM839.629 338.69C835.695 338.69 833.322 334.741 833.322 327.469C833.337 320.224 835.709 316.233 839.629 316.233C843.536 316.233 845.922 320.224 845.922 327.469C845.922 334.741 843.55 338.69 839.629 338.69ZM865.45 342.483C872.168 342.483 876.103 337 876.103 327.469C876.103 318.009 872.112 312.511 865.45 312.511C858.773 312.511 854.796 317.994 854.782 327.469C854.782 336.986 858.717 342.469 865.45 342.483ZM865.45 338.69C861.515 338.69 859.143 334.741 859.143 327.469C859.157 320.224 861.529 316.233 865.45 316.233C869.356 316.233 871.742 320.224 871.742 327.469C871.742 334.741 869.37 338.69 865.45 338.69Z" fill="#5965E0"/>
<path d="M895.137 320.182H890.478L897.183 331.091L890.393 342H895.052L899.952 333.847L904.867 342H909.512L902.651 331.091L909.455 320.182H904.81L899.952 328.676L895.137 320.182ZM913.816 350.182H918.063V338.605H918.319C919.086 339.997 920.648 342.426 924.626 342.426C929.91 342.426 933.745 338.193 933.745 331.134C933.745 324.06 929.853 319.898 924.583 319.898C920.535 319.898 919.072 322.369 918.319 323.719H917.964V320.182H913.816V350.182ZM917.978 331.091C917.978 326.531 919.967 323.506 923.674 323.506C927.523 323.506 929.455 326.759 929.455 331.091C929.455 335.466 927.467 338.804 923.674 338.804C920.023 338.804 917.978 335.679 917.978 331.091Z" fill="#666666"/>
<path opacity="0.5" d="M732.517 287H744.312V283.957H736.207V279.79H743.673V276.747H736.207V272.588H744.278V269.545H732.517V287ZM750.673 269.545H746.488L751.849 278.273L746.386 287H750.613L754.192 281.043H754.329L757.908 287H762.153L756.707 278.273L762.033 269.545H757.866L754.329 275.494H754.192L750.673 269.545ZM764.369 287H768.059V281.341H771.161C775.175 281.341 777.511 278.946 777.511 275.46C777.511 271.991 775.218 269.545 771.255 269.545H764.369V287ZM768.059 278.384V272.562H770.548C772.678 272.562 773.71 273.722 773.71 275.46C773.71 277.19 772.678 278.384 770.565 278.384H768.059ZM779.908 287H791.703V283.957H783.598V279.79H791.064V276.747H783.598V272.588H791.669V269.545H779.908V287ZM794.603 287H798.293V280.812H800.987L804.293 287H808.367L804.66 280.216C806.646 279.364 807.745 277.634 807.745 275.247C807.745 271.778 805.452 269.545 801.489 269.545H794.603V287ZM798.293 277.847V272.562H800.782C802.913 272.562 803.944 273.509 803.944 275.247C803.944 276.977 802.913 277.847 800.799 277.847H798.293ZM814.043 269.545H810.353V287H814.043V269.545ZM817.08 287H828.875V283.957H820.77V279.79H828.236V276.747H820.77V272.588H828.841V269.545H817.08V287ZM821.273 267.994L822.986 265.915L824.699 267.994H827.793V267.875L824.332 264.125H821.631L818.179 267.875V267.994H821.273ZM846.374 269.545H842.701V280.523H842.548L835.013 269.545H831.775V287H835.465V276.014H835.593L843.187 287H846.374V269.545ZM864.824 275.656C864.338 271.625 861.287 269.307 857.247 269.307C852.636 269.307 849.116 272.562 849.116 278.273C849.116 283.966 852.577 287.239 857.247 287.239C861.722 287.239 864.423 284.264 864.824 281.051L861.091 281.034C860.741 282.901 859.276 283.974 857.307 283.974C854.656 283.974 852.858 282.006 852.858 278.273C852.858 274.642 854.631 272.571 857.332 272.571C859.352 272.571 860.81 273.739 861.091 275.656H864.824ZM871.161 269.545H867.47V287H871.161V269.545ZM877.205 287L878.501 283.02H884.799L886.094 287H890.049L884.032 269.545H879.276L873.251 287H877.205ZM879.438 280.139L881.586 273.534H881.722L883.87 280.139H879.438Z" fill="#666666"/>
<g clip-path="url(#clip0)">
<path d="M838.307 489.049L834.685 505.682H825.248L828.871 489.049C829.155 487.741 828.99 487.5 827.653 487.5H824.246C822.918 487.5 822.64 487.741 822.359 489.016C822.359 489.016 822.359 489.038 822.359 489.049L818.736 505.682H809.291L812.917 489.049C813.2 487.741 813.036 487.5 811.696 487.5H808.289C806.949 487.5 806.68 487.744 806.396 489.049L802.771 505.682H793.334L798.896 480.149H806.561L807.776 482.343C808.474 481.625 809.32 481.058 810.259 480.68C811.197 480.302 812.206 480.121 813.22 480.149H815.176C818.867 480.149 821.356 481.714 822.248 484.359C823.897 481.418 826.287 480.149 829.174 480.149H831.133C836.677 480.149 839.496 483.642 838.307 489.049Z" fill="#5965E0"/>
<path d="M867.084 489.049L865.4 496.782C864.222 502.189 859.879 505.682 854.329 505.682H847.181C841.639 505.682 838.82 502.186 839.999 496.78L841.682 489.049C842.857 483.642 847.201 480.149 852.753 480.149H859.913C865.443 480.149 868.265 483.642 867.084 489.049ZM857.639 489.049C857.923 487.741 857.758 487.5 856.421 487.5H853.015C851.675 487.5 851.405 487.744 851.121 489.049L849.435 496.78C849.151 498.087 849.318 498.328 850.655 498.328H854.062C855.399 498.328 855.672 498.084 855.956 496.78L857.639 489.049Z" fill="#5965E0"/>
<path d="M925.975 487.016C925.63 488.467 924.796 489.764 923.607 490.7L918.801 494.577C917.649 495.523 916.199 496.055 914.694 496.084H908.039L907.889 496.768C907.605 498.076 907.77 498.317 909.11 498.317H923.508L921.907 505.671H905.624C900.082 505.671 897.263 502.175 898.441 496.768L900.125 489.038C901.303 483.631 905.646 480.138 911.196 480.138H918.361C923.889 480.149 926.747 483.459 925.975 487.016ZM916.09 489.049C916.374 487.741 916.21 487.5 914.87 487.5H911.463C910.129 487.498 909.845 487.744 909.561 489.049L908.993 491.711H914.614C914.866 491.7 915.108 491.61 915.303 491.454C915.497 491.297 915.634 491.083 915.693 490.844L916.09 489.049Z" fill="#5965E0"/>
<path d="M936.583 501.347C936.061 503.743 934.122 505.685 931.19 505.685C928.257 505.685 927.167 503.746 927.689 501.347C928.212 498.948 930.151 497.012 933.083 497.012C936.016 497.012 937.097 498.948 936.583 501.347Z" fill="#4CD62B"/>
<path d="M956.829 480.149L955.228 487.498L951.254 505.679H941.82L945.795 487.498H941.085L942.689 480.146L956.829 480.149ZM949.823 475.382C948.188 473.609 948.687 470.568 950.933 468.593C953.178 466.618 956.327 466.457 957.97 468.233C959.614 470.008 959.106 473.05 956.86 475.025C954.615 476.999 951.461 477.16 949.823 475.382Z" fill="#5965E0"/>
<path d="M971.972 483.825L969.15 496.78C968.866 498.087 969.031 498.328 970.368 498.328H976.236L974.635 505.682H966.888C961.346 505.682 958.525 502.186 959.703 496.78L962.524 483.825H958.956L960.557 476.47H964.134L965.446 470.449H974.89L973.579 476.47H981.005L979.395 483.825H971.972Z" fill="#5965E0"/>
<path d="M756.509 470.745H768.483L758.521 517H746.547L756.509 470.745Z" fill="#5965E0"/>
<path d="M774.079 470.745H786.053L778.291 506.987H766.314L774.079 470.745Z" fill="#5965E0"/>
<path d="M738.764 470.745H750.738L742.976 506.987H731L738.764 470.745Z" fill="#5965E0"/>
<path d="M902.027 480.149L884.531 505.682H874.879L868.498 480.149H878.834L881.613 496.915L891.691 480.163L902.027 480.149Z" fill="#5965E0"/>
</g>
<defs>
<filter id="filter0_d" x="282.978" y="112.371" width="192.853" height="257.629" filterUnits="userSpaceOnUse" color-interpolation-filters="sRGB">
<feFlood flood-opacity="0" result="BackgroundImageFix"/>
<feColorMatrix in="SourceAlpha" type="matrix" values="0 0 0 0 0 0 0 0 0 0 0 0 0 0 0 0 0 0 127 0"/>
<feOffset dy="10"/>
<feGaussianBlur stdDeviation="8"/>
<feColorMatrix type="matrix" values="0 0 0 0 0.34902 0 0 0 0 0.396078 0 0 0 0 0.878431 0 0 0 0.3 0"/>
<feBlend mode="normal" in2="BackgroundImageFix" result="effect1_dropShadow"/>
<feBlend mode="normal" in="SourceGraphic" in2="effect1_dropShadow" result="shape"/>
</filter>
<linearGradient id="paint0_linear" x1="383.961" y1="114" x2="383.961" y2="354" gradientUnits="userSpaceOnUse">
<stop stop-color="#DCDDE0"/>
<stop offset="1" stop-color="#DCDDE0" stop-opacity="0"/>
</linearGradient>
<clipPath id="clip0">
<rect width="250" height="50" fill="white" transform="translate(731 467)"/>
</clipPath>
</defs>
</svg>
